<svg width="515" height="460" viewBox="0 0 515 460" fill="none" xmlns="http://www.w3.org/2000/svg">
<path d="M222.175 180.624C223.776 184.434 228.162 186.225 231.972 184.624L247.662 178.032C255.649 174.676 264.309 173.192 272.952 173.793C275.529 173.973 278.197 173.485 280.706 172.228C287.353 168.898 290.561 161.005 288.123 153.981C285.262 145.735 276.098 141.735 268.177 145.063C266.032 145.964 264.206 147.307 262.763 148.942C256.971 155.503 249.931 160.846 241.862 164.236L226.175 170.827C222.365 172.427 220.574 176.814 222.175 180.624Z" fill="#FB4C47"/>
<path d="M147.515 264.692C144.352 263.4 140.741 264.918 139.449 268.081L134.13 281.108C131.423 287.739 127.228 293.669 121.824 298.37C120.212 299.772 118.938 301.617 118.206 303.818C116.267 309.651 119.005 316.141 124.537 318.822C131.031 321.97 138.726 318.951 141.411 312.375C142.139 310.594 142.42 308.742 142.309 306.943C141.859 299.721 142.852 292.482 145.587 285.783L150.905 272.759C152.196 269.595 150.678 265.983 147.515 264.692Z" fill="#C63F3B"/>
<path d="M195.488 147.205C198.798 148.556 202.577 146.969 203.929 143.658L209.494 130.027C212.328 123.088 216.717 116.882 222.372 111.963C224.058 110.496 225.392 108.566 226.158 106.262C228.187 100.158 225.321 93.3672 219.533 90.5613C212.738 87.2672 204.684 90.4265 201.875 97.3076C201.114 99.1716 200.819 101.11 200.936 102.993C201.406 110.55 200.368 118.125 197.506 125.135L191.941 138.764C190.59 142.074 192.178 145.853 195.488 147.205Z" fill="#C63F3B"/>
<path d="M193.948 249.774C190.138 251.374 188.346 255.761 189.947 259.571L196.539 275.261C199.895 283.248 201.38 291.908 200.778 300.551C200.599 303.127 201.087 305.796 202.343 308.304C205.674 314.952 213.566 318.16 220.59 315.722C228.837 312.86 232.836 303.697 229.508 295.776C228.607 293.63 227.264 291.805 225.629 290.362C219.068 284.57 213.726 277.53 210.336 269.461L203.745 253.774C202.144 249.964 197.758 248.173 193.948 249.774Z" fill="#FB4C47"/>
<path d="M225.627 290.363C219.066 284.57 213.723 277.531 210.333 269.462L203.742 253.774C202.141 249.964 197.755 248.173 193.944 249.774C190.134 251.375 188.343 255.761 189.944 259.571L196.535 275.259C199.926 283.328 205.268 290.367 211.829 296.16C213.464 297.603 214.807 299.428 215.708 301.574C217.852 306.677 216.951 312.293 213.837 316.41C216.059 316.698 218.367 316.494 220.588 315.723C228.834 312.861 232.834 303.697 229.506 295.777C228.605 293.631 227.262 291.806 225.627 290.363Z" fill="#C63F3B"/>
<path d="M110.029 194.224C122.476 188.994 128.326 174.665 123.097 162.219C117.867 149.772 103.538 143.922 91.0917 149.151C78.6453 154.381 72.7947 168.71 78.0241 181.156C83.2536 193.603 97.5827 199.453 110.029 194.224Z" fill="#FF8F8C"/>
<path d="M91.097 149.15C88.6902 150.162 86.5333 151.516 84.6517 153.129C94.9472 152.232 105.086 157.976 109.304 168.015C113.522 178.055 110.528 189.316 102.682 196.042C105.15 195.827 107.627 195.234 110.034 194.223C122.481 188.994 128.331 174.665 123.102 162.218C117.872 149.771 103.543 143.921 91.097 149.15Z" fill="#FB4C47"/>
<path d="M204.405 274.669C245.046 257.593 264.149 210.805 247.074 170.165C229.999 129.524 183.211 110.421 142.57 127.496C101.929 144.571 82.826 191.359 99.9013 232C116.977 272.641 163.765 291.744 204.405 274.669Z" fill="#FB4C47"/>
<path d="M142.57 127.495C140.244 128.473 137.991 129.552 135.808 130.718C174.675 118.481 217.18 137.647 233.277 175.961C249.375 214.274 233.315 258.047 197.371 277.242C199.731 276.499 202.079 275.645 204.406 274.668C245.047 257.592 264.15 210.805 247.075 170.164C230 129.523 183.211 110.42 142.57 127.495Z" fill="#C63F3B"/>
<path d="M196.796 179.281C205.051 175.813 208.932 166.309 205.463 158.054C201.995 149.798 192.491 145.918 184.236 149.387C175.98 152.855 172.1 162.359 175.569 170.614C179.037 178.869 188.541 182.75 196.796 179.281Z" fill="#C63F3B"/>
<path d="M184.234 149.387C181.745 150.433 179.657 152.03 178.045 153.974C183.874 154.458 189.242 158.085 191.664 163.851C194.087 169.617 192.921 175.989 189.186 180.492C191.703 180.701 194.305 180.327 196.795 179.281C205.05 175.813 208.93 166.309 205.462 158.054C201.993 149.799 192.49 145.918 184.234 149.387Z" fill="white"/>
<path d="M163.514 250.999C169.103 248.651 171.729 242.217 169.381 236.629C167.033 231.041 160.6 228.414 155.012 230.762C149.423 233.11 146.797 239.543 149.145 245.132C151.493 250.72 157.926 253.347 163.514 250.999Z" fill="white"/>
<path d="M252.278 248.422C259.898 245.22 263.48 236.447 260.278 228.827C257.076 221.207 248.304 217.625 240.683 220.826C233.063 224.028 229.481 232.801 232.683 240.421C235.885 248.041 244.657 251.623 252.278 248.422Z" fill="#FB4C47"/>
<path d="M240.683 220.827C238.169 221.883 236.097 223.549 234.561 225.576C239.686 226.23 244.334 229.518 246.48 234.625C248.625 239.731 247.721 245.353 244.601 249.471C247.124 249.793 249.763 249.479 252.277 248.423C259.898 245.221 263.479 236.448 260.278 228.828C257.076 221.208 248.303 217.625 240.683 220.827Z" fill="#C63F3B"/>
<path d="M124.791 221.54C126.392 225.35 124.602 229.737 120.791 231.338L105.102 237.93C97.1142 241.286 89.9926 246.432 84.3733 253.026C82.6981 254.992 80.4821 256.556 77.8284 257.468C70.797 259.885 62.915 256.652 59.6042 249.995C55.7174 242.179 59.2746 232.835 67.1953 229.507C69.3409 228.605 71.5775 228.242 73.7551 228.355C82.4954 228.81 91.2382 227.522 99.3072 224.131L114.995 217.54C118.804 215.939 123.191 217.73 124.791 221.54Z" fill="#C63F3B"/>
<path d="M153.035 152.389C156.845 150.788 158.637 146.402 157.036 142.592L150.443 126.902C147.088 118.915 145.603 110.255 146.205 101.612C146.384 99.0353 145.896 96.3673 144.639 93.8583C141.309 87.2108 133.417 84.0031 126.392 86.4407C118.146 89.3025 114.146 98.4662 117.474 106.387C118.376 108.533 119.719 110.358 121.354 111.801C127.915 117.593 133.257 124.633 136.647 132.702L143.239 148.389C144.839 152.199 149.225 153.99 153.035 152.389Z" fill="#FB4C47"/>
<path d="M144.64 93.8582C141.31 87.2106 133.418 84.003 126.393 86.4406C123.459 87.4585 121.067 89.2767 119.347 91.5506C124.154 92.1742 128.565 95.1098 130.843 99.6554C132.099 102.164 132.588 104.832 132.408 107.409C131.806 116.052 133.291 124.712 136.647 132.699L143.239 148.389C144.839 152.199 149.226 153.99 153.036 152.389C156.847 150.788 158.637 146.402 157.036 142.592L150.444 126.902C147.088 118.915 145.604 110.255 146.206 101.612C146.385 99.0352 145.898 96.3669 144.64 93.8582Z" fill="#C63F3B"/>
<path d="M269.738 145.452C267.578 146.313 265.729 147.622 264.257 149.229C263.997 149.513 263.731 149.792 263.465 150.071C268.903 150.841 273.756 154.585 275.612 160.269C277.2 165.131 276.107 170.354 273.087 174.184C273.385 174.205 273.684 174.223 273.982 174.249C276.554 174.476 279.229 174.037 281.759 172.827C288.463 169.621 291.813 161.793 289.506 154.73C286.798 146.436 277.714 142.272 269.738 145.452Z" fill="#C63F3B"/>
<g opacity="0.63">
<path d="M328.882 320.025C330.098 321.741 332.475 322.147 334.192 320.931L341.261 315.925C344.86 313.376 349 311.683 353.361 311.028C354.661 310.833 355.933 310.296 357.041 309.395C359.977 307.006 360.7 302.73 358.714 299.509C356.382 295.727 351.387 294.75 347.818 297.278C346.852 297.963 346.093 298.831 345.556 299.803C343.402 303.702 340.493 307.134 336.857 309.709L329.789 314.715C328.072 315.93 327.666 318.308 328.882 320.025Z" fill="#FFC700"/>
<path d="M295.189 360.854C293.475 360.561 291.848 361.714 291.555 363.428L290.349 370.488C289.735 374.082 288.305 377.492 286.138 380.424C285.492 381.298 285.062 382.355 284.942 383.53C284.622 386.643 286.698 389.565 289.743 390.287C293.317 391.135 296.808 388.786 297.417 385.222C297.582 384.257 297.517 383.305 297.263 382.424C296.243 378.884 295.938 375.178 296.558 371.547L297.764 364.489C298.056 362.774 296.903 361.147 295.189 360.854Z" fill="#D09700"/>
<path d="M306.068 297.179C307.862 297.485 309.565 296.28 309.871 294.486L311.133 287.098C311.775 283.337 313.272 279.769 315.539 276.701C316.215 275.786 316.665 274.68 316.791 273.45C317.126 270.193 314.953 267.135 311.767 266.379C308.027 265.492 304.374 267.951 303.737 271.68C303.564 272.69 303.632 273.686 303.897 274.608C304.965 278.312 305.284 282.19 304.636 285.99L303.374 293.376C303.068 295.17 304.274 296.873 306.068 297.179Z" fill="#D09700"/>
<path d="M316.613 348.32C314.897 349.536 314.49 351.913 315.706 353.63L320.713 360.7C323.262 364.298 324.955 368.438 325.61 372.799C325.805 374.1 326.342 375.372 327.243 376.48C329.632 379.416 333.907 380.139 337.129 378.152C340.911 375.821 341.888 370.826 339.36 367.257C338.675 366.29 337.807 365.531 336.835 364.994C332.936 362.84 329.504 359.931 326.929 356.295L321.923 349.227C320.707 347.511 318.33 347.105 316.613 348.32Z" fill="#FFC700"/>
<path d="M336.835 364.993C332.935 362.838 329.504 359.929 326.929 356.294L321.923 349.225C320.707 347.509 318.329 347.103 316.613 348.318C314.896 349.534 314.49 351.912 315.706 353.628L320.712 360.697C323.287 364.332 326.718 367.241 330.618 369.396C331.589 369.932 332.458 370.691 333.143 371.658C334.771 373.957 334.943 376.848 333.85 379.237C334.986 379.135 336.11 378.779 337.129 378.151C340.911 375.819 341.887 370.824 339.36 367.255C338.675 366.288 337.806 365.529 336.835 364.993Z" fill="#D09700"/>
<path d="M268.789 329.973C274.397 326.002 275.723 318.236 271.751 312.628C267.779 307.02 260.014 305.694 254.406 309.665C248.798 313.637 247.471 321.403 251.443 327.011C255.415 332.619 263.181 333.945 268.789 329.973Z" fill="#D09700"/>
<path d="M254.406 309.665C253.322 310.433 252.4 311.344 251.642 312.353C256.659 310.772 262.331 312.507 265.535 317.031C268.739 321.554 268.493 327.48 265.336 331.688C266.539 331.309 267.705 330.741 268.789 329.973C274.397 326.001 275.724 318.236 271.752 312.628C267.78 307.02 260.014 305.694 254.406 309.665Z" fill="#FFC700"/>
<path d="M324.556 359.537C342.867 346.569 347.198 321.211 334.229 302.899C321.26 284.588 295.902 280.257 277.591 293.226C259.28 306.195 254.949 331.553 267.918 349.864C280.887 368.176 306.244 372.506 324.556 359.537Z" fill="#FFC700"/>
<path d="M277.597 293.225C276.549 293.968 275.549 294.753 274.593 295.573C292.556 285.204 315.793 290.039 328.019 307.302C340.245 324.565 337.094 348.088 321.351 361.592C322.441 360.962 323.514 360.279 324.562 359.537C342.874 346.568 347.205 321.21 334.236 302.899C321.267 284.587 295.909 280.256 277.597 293.225Z" fill="#D09700"/>
<path d="M305.679 315.759C307.033 314.8 307.353 312.925 306.394 311.571C305.435 310.216 303.56 309.896 302.206 310.855C300.851 311.814 300.531 313.69 301.49 315.044C302.449 316.398 304.325 316.718 305.679 315.759Z" fill="white"/>
<path d="M301.622 352.287C304.14 350.503 304.736 347.016 302.953 344.498C301.169 341.98 297.682 341.384 295.164 343.168C292.646 344.951 292.05 348.438 293.834 350.957C295.617 353.475 299.104 354.07 301.622 352.287Z" fill="white"/>
<path d="M283.987 328.846C287.842 326.116 288.754 320.777 286.023 316.922C283.293 313.067 277.954 312.155 274.099 314.885C270.243 317.616 269.332 322.955 272.062 326.81C274.793 330.665 280.131 331.577 283.987 328.846Z" fill="white"/>
<path d="M345.446 341.213C348.88 338.781 349.692 334.026 347.26 330.593C344.828 327.159 340.073 326.347 336.64 328.779C333.206 331.211 332.394 335.966 334.826 339.399C337.258 342.833 342.013 343.645 345.446 341.213Z" fill="#FFC700"/>
<path d="M336.641 328.779C335.509 329.582 334.663 330.638 334.123 331.815C336.742 331.574 339.415 332.696 341.045 334.996C342.674 337.297 342.845 340.19 341.749 342.581C343.038 342.463 344.315 342.016 345.448 341.214C348.882 338.782 349.693 334.027 347.262 330.593C344.83 327.16 340.075 326.347 336.641 328.779Z" fill="#D09700"/>
<path d="M279.137 341.919C280.353 343.636 279.947 346.013 278.23 347.229L271.161 352.236C267.562 354.785 264.591 358.128 262.526 362.025C261.911 363.187 260.982 364.208 259.764 364.954C256.536 366.931 252.263 366.194 249.883 363.251C247.09 359.796 247.826 354.76 251.395 352.233C252.362 351.548 253.433 351.121 254.528 350.937C258.921 350.199 263.124 348.594 266.759 346.019L273.828 341.013C275.544 339.797 277.921 340.203 279.137 341.919Z" fill="#D09700"/>
<path d="M285.539 304.443C287.255 303.227 287.662 300.85 286.446 299.133L281.439 292.064C278.89 288.465 277.197 284.325 276.542 279.964C276.347 278.664 275.81 277.392 274.909 276.284C272.521 273.348 268.245 272.625 265.023 274.611C261.241 276.943 260.265 281.938 262.792 285.507C263.477 286.474 264.346 287.232 265.317 287.769C269.217 289.924 272.648 292.832 275.223 296.468L280.229 303.536C281.445 305.253 283.822 305.659 285.539 304.443Z" fill="#FFC700"/>
<path d="M274.907 276.284C272.518 273.348 268.243 272.625 265.021 274.611C263.675 275.441 262.687 276.608 262.083 277.928C264.541 277.708 267.057 278.68 268.69 280.687C269.591 281.795 270.128 283.067 270.323 284.368C270.978 288.729 272.671 292.869 275.22 296.467L280.227 303.537C281.442 305.253 283.82 305.66 285.537 304.444C287.253 303.228 287.659 300.85 286.444 299.134L281.437 292.064C278.888 288.465 277.195 284.326 276.54 279.965C276.345 278.664 275.808 277.392 274.907 276.284Z" fill="#D09700"/>
</g>
<path d="M380.172 236.392C377.815 235.841 375.458 237.305 374.907 239.663L372.64 249.369C371.486 254.311 369.213 258.928 365.957 262.819C364.986 263.98 364.3 265.413 364.033 267.034C363.328 271.332 365.968 275.566 370.137 276.825C375.031 278.302 380.078 275.331 381.223 270.431C381.533 269.104 381.523 267.777 381.244 266.53C380.124 261.528 380.01 256.353 381.176 251.361L383.443 241.657C383.994 239.3 382.529 236.942 380.172 236.392Z" fill="#1DB776"/>
<path d="M365.973 172.088C367.672 171.032 368.194 168.798 367.138 167.098L362.789 160.097C360.575 156.534 359.205 152.506 358.833 148.327C358.722 147.081 358.286 145.843 357.493 144.739C355.393 141.814 351.375 140.882 348.201 142.583C344.476 144.581 343.262 149.268 345.458 152.802C346.053 153.759 346.834 154.529 347.726 155.095C351.305 157.364 354.397 160.323 356.633 163.923L360.982 170.922C362.039 172.622 364.273 173.144 365.973 172.088Z" fill="#128E5A"/>
<path d="M405.196 235.223C403.417 236.329 402.871 238.666 403.976 240.445L408.527 247.771C410.844 251.5 412.277 255.715 412.666 260.087C412.782 261.391 413.239 262.687 414.069 263.842C416.266 266.903 420.471 267.878 423.792 266.098C427.69 264.008 428.96 259.103 426.663 255.405C426.04 254.403 425.222 253.597 424.289 253.005C420.544 250.63 417.309 247.534 414.968 243.767L410.418 236.443C409.312 234.664 406.974 234.118 405.196 235.223Z" fill="#128E5A"/>
<path d="M357.083 199.233C357.633 196.876 356.169 194.518 353.812 193.968L344.105 191.701C339.164 190.546 334.547 188.273 330.655 185.017C329.495 184.046 328.062 183.36 326.44 183.094C322.143 182.388 317.909 185.028 316.65 189.197C315.172 194.092 318.143 199.138 323.043 200.283C324.371 200.593 325.698 200.584 326.944 200.304C331.946 199.184 337.121 199.071 342.113 200.237L351.818 202.504C354.175 203.054 356.532 201.59 357.083 199.233Z" fill="#1DB776"/>
<path d="M326.946 200.305C331.948 199.184 337.123 199.071 342.115 200.237L351.82 202.504C354.177 203.054 356.534 201.59 357.085 199.233C357.635 196.876 356.171 194.519 353.814 193.968L344.109 191.701C339.117 190.535 333.942 190.648 328.94 191.769C327.693 192.048 326.366 192.057 325.039 191.747C321.882 191.01 319.528 188.652 318.646 185.76C317.746 186.715 317.05 187.879 316.652 189.198C315.174 194.092 318.145 199.139 323.045 200.283C324.372 200.593 325.699 200.584 326.946 200.305Z" fill="#128E5A"/>
<path d="M412.274 178.534C410.475 186.234 415.259 193.935 422.959 195.733C430.659 197.532 438.359 192.748 440.158 185.048C441.957 177.348 437.173 169.647 429.473 167.849C421.772 166.05 414.072 170.834 412.274 178.534Z" fill="#128E5A"/>
<path d="M440.16 185.049C440.508 183.56 440.607 182.072 440.489 180.625C437.375 185.816 431.166 188.649 424.955 187.199C418.744 185.748 414.433 180.457 413.941 174.424C413.194 175.668 412.624 177.047 412.276 178.536C410.477 186.236 415.261 193.936 422.961 195.735C430.661 197.534 438.362 192.749 440.16 185.049Z" fill="#1DB776"/>
<path d="M341.681 195.637C335.808 220.779 351.429 245.922 376.572 251.795C401.714 257.668 426.857 242.047 432.73 216.904C438.603 191.762 422.982 166.619 397.839 160.746C372.697 154.873 347.554 170.494 341.681 195.637Z" fill="#1DB776"/>
<path d="M432.739 216.903C433.075 215.464 433.337 214.025 433.535 212.589C425.977 235.227 402.277 248.795 378.574 243.258C354.871 237.722 339.634 215.058 342.887 191.415C342.428 192.79 342.026 194.196 341.69 195.636C335.817 220.779 351.438 245.921 376.58 251.794C401.723 257.667 426.866 242.046 432.739 216.903Z" fill="#128E5A"/>
<path d="M389.529 224.818C388.336 229.925 391.509 235.032 396.616 236.225C401.723 237.418 406.83 234.245 408.023 229.138C409.216 224.031 406.043 218.924 400.936 217.731C395.829 216.538 390.722 219.711 389.529 224.818Z" fill="#128E5A"/>
<path d="M408.033 229.137C408.393 227.597 408.353 226.057 407.985 224.625C405.752 227.223 402.187 228.521 398.62 227.688C395.053 226.855 392.431 224.111 391.58 220.793C390.616 221.914 389.898 223.277 389.538 224.817C388.346 229.924 391.519 235.031 396.626 236.224C401.733 237.417 406.84 234.244 408.033 229.137Z" fill="white"/>
<path d="M366.964 184.38C366.157 187.837 368.305 191.295 371.762 192.102C375.219 192.91 378.677 190.762 379.484 187.305C380.292 183.847 378.144 180.39 374.686 179.582C371.229 178.775 367.772 180.923 366.964 184.38Z" fill="white"/>
<path d="M337.671 227.36C336.57 232.075 339.499 236.79 344.214 237.891C348.929 238.993 353.644 236.063 354.745 231.348C355.846 226.633 352.917 221.918 348.202 220.817C343.487 219.716 338.772 222.645 337.671 227.36Z" fill="#1DB776"/>
<path d="M354.749 231.347C355.112 229.792 355.034 228.237 354.601 226.811C352.529 229.017 349.371 230.091 346.212 229.353C343.052 228.615 340.697 226.253 339.817 223.357C338.796 224.444 338.038 225.803 337.674 227.359C336.573 232.074 339.503 236.789 344.217 237.89C348.932 238.991 353.648 236.062 354.749 231.347Z" fill="#128E5A"/>
<path d="M394.244 176.147C391.887 175.596 390.422 173.239 390.973 170.882L393.24 161.175C394.394 156.234 394.402 151.088 393.207 146.156C392.85 144.686 392.87 143.097 393.35 141.525C394.621 137.36 398.863 134.734 403.158 135.452C408.201 136.296 411.41 141.195 410.265 146.095C409.955 147.422 409.358 148.608 408.556 149.601C405.336 153.59 402.941 158.179 401.775 163.171L399.508 172.876C398.958 175.233 396.601 176.697 394.244 176.147Z" fill="#128E5A"/>
<path d="M417.332 213.307C416.781 215.664 418.246 218.022 420.603 218.572L430.31 220.84C435.251 221.994 439.868 224.267 443.76 227.523C444.92 228.494 446.353 229.18 447.975 229.446C452.272 230.152 456.506 227.512 457.765 223.343C459.242 218.449 456.272 213.402 451.372 212.257C450.044 211.947 448.717 211.957 447.471 212.236C442.468 213.356 437.294 213.47 432.302 212.304L422.597 210.037C420.24 209.486 417.883 210.95 417.332 213.307Z" fill="#1DB776"/>
<path d="M447.973 229.444C452.271 230.15 456.505 227.51 457.764 223.341C458.289 221.6 458.25 219.84 457.763 218.243C455.814 220.308 452.906 221.391 449.967 220.908C448.346 220.642 446.912 219.956 445.752 218.985C441.861 215.729 437.243 213.456 432.302 212.302L422.596 210.034C420.239 209.484 417.881 210.948 417.331 213.305C416.78 215.663 418.244 218.02 420.602 218.57L430.308 220.838C435.25 221.992 439.867 224.265 443.758 227.521C444.919 228.492 446.352 229.178 447.973 229.444Z" fill="#128E5A"/>
<path d="M381.221 270.437C381.53 269.111 381.521 267.784 381.242 266.538C381.193 266.318 381.148 266.096 381.102 265.875C378.911 268.231 375.486 269.308 372.132 268.295C369.264 267.429 367.121 265.155 366.292 262.42C366.182 262.556 366.074 262.694 365.961 262.828C364.991 263.988 364.305 265.42 364.039 267.042C363.334 271.337 365.972 275.569 370.14 276.828C375.032 278.305 380.076 275.335 381.221 270.437Z" fill="#128E5A"/>
</svg>
