<svg width="20" height="16" viewBox="0 0 20 16" fill="none" xmlns="http://www.w3.org/2000/svg">
<path d="M19.735 2.15178C19.1866 2.95387 18.5236 3.63728 17.7461 4.20201C17.7543 4.31659 17.7584 4.48847 17.7584 4.71763C17.7584 5.78162 17.6029 6.84561 17.2919 7.9096C16.9809 8.9654 16.5062 9.98028 15.8678 10.9542C15.2376 11.9282 14.4846 12.7917 13.6088 13.5446C12.7331 14.2894 11.6773 14.8869 10.4414 15.3371C9.20556 15.779 7.88376 16 6.47602 16C4.25802 16 2.22825 15.4066 0.386736 14.2199C0.673195 14.2526 0.992391 14.269 1.34433 14.269C3.18584 14.269 4.82684 13.7042 6.26732 12.5748C5.40794 12.5584 4.6386 12.2965 3.95928 11.7891C3.27997 11.2734 2.81345 10.6187 2.55973 9.82478C2.82982 9.8657 3.07944 9.88616 3.30861 9.88616C3.66055 9.88616 4.00839 9.84115 4.35214 9.75112C3.43547 9.56287 2.67431 9.10863 2.06866 8.38839C1.47119 7.65997 1.17245 6.81696 1.17245 5.85937V5.81027C1.729 6.12128 2.32647 6.28906 2.96486 6.31362C2.42468 5.9535 1.995 5.48289 1.6758 4.90178C1.3566 4.32068 1.197 3.69048 1.197 3.01116C1.197 2.29092 1.37706 1.62388 1.73718 1.01004C2.72751 2.22954 3.93064 3.20759 5.34656 3.9442C6.77067 4.67262 8.29299 5.07775 9.91352 5.1596C9.84805 4.84859 9.81531 4.54576 9.81531 4.25112C9.81531 3.15439 10.2 2.22135 10.9693 1.45201C11.7469 0.674479 12.684 0.285714 13.7807 0.285714C14.9265 0.285714 15.8923 0.703125 16.678 1.53795C17.5701 1.36607 18.4091 1.04687 19.1948 0.580357C18.8919 1.52158 18.3108 2.25 17.4515 2.76562C18.2126 2.68378 18.9738 2.47917 19.735 2.15178Z" fill="#035755"/>
</svg>
