<svg width="21" height="18" viewBox="0 0 21 18" fill="none" xmlns="http://www.w3.org/2000/svg">
<path d="M20.9559 4.50223C20.874 6.43378 19.5154 9.09784 16.88 12.4944C14.1545 16.0219 11.8547 17.7857 9.98043 17.7857C8.81823 17.7857 7.83609 16.7094 7.03401 14.5569C6.67389 13.2474 6.13371 11.2749 5.41347 8.63951C4.82418 6.49516 4.1817 5.42299 3.48601 5.42299C3.33869 5.42299 2.81898 5.734 1.92686 6.35603L0.98155 5.1529C1.17798 4.98103 1.61994 4.58817 2.30744 3.97433C2.99494 3.35231 3.52694 2.8776 3.90343 2.55022C5.18021 1.42076 6.16645 0.823288 6.86213 0.757811C7.63966 0.684151 8.26578 0.913318 8.74048 1.44531C9.21518 1.96912 9.54665 2.79985 9.7349 3.9375C10.095 6.28646 10.3651 7.81287 10.5452 8.51674C10.9953 10.5547 11.4864 11.5737 12.0184 11.5737C12.4358 11.5737 13.066 10.9148 13.909 9.5971C14.7356 8.27939 15.1817 7.27269 15.2472 6.57701C15.3536 5.43936 14.9075 4.87053 13.909 4.87053C13.4425 4.87053 12.9473 4.97693 12.4235 5.18973C13.4057 1.97321 15.284 0.409969 18.0586 0.499999C20.1129 0.565476 21.0786 1.89955 20.9559 4.50223Z" fill="#035755"/>
</svg>
