<svg width="820" height="775" viewBox="0 0 820 775" fill="none" xmlns="http://www.w3.org/2000/svg">
<g opacity="0.62">
<path d="M342.319 691.925C304.696 708.085 266.219 716.929 224.225 711.755C177.418 705.985 134.734 669.038 109.5 631.06C100.124 616.953 92.3527 601.015 92.127 584.082C91.62 544.964 128.165 538.204 159.839 542.469C177.694 544.864 194.402 551.88 210.922 558.83C238.349 570.378 269.931 574.876 294.944 591.731C303.339 597.405 309.825 604.456 319.404 608.357C334.305 614.431 351.007 616.668 366.258 622.086C379.281 626.738 394.027 634.828 394.946 648.621C395.871 662.767 381.701 672.746 369.1 679.224C360.183 683.836 351.283 688.091 342.319 691.925Z" fill="url(#paint0_linear)"/>
<path d="M167.723 198.324C224.746 101.226 352.773 55.3765 460.805 83.4319C512.899 96.9691 557.928 129.299 599.724 163.183C636.566 193.048 672.536 225.505 698.96 265.264C717.002 292.402 730.804 325.444 741.052 356.463C756.378 402.91 749.234 464.511 687.87 464.038C673.472 463.928 660.739 459.585 647.043 455.952C635.964 453.005 625.484 455.89 614.113 454.84C585.49 452.203 557.518 443.555 530.914 433.023C476.694 411.536 426.428 380.817 370.915 362.51C325.423 347.532 277.485 341.394 229.686 344.429C209.521 345.712 188.413 348.507 169.789 340.669C123.883 321.329 139.958 260.051 154.358 225.23C158.17 215.956 162.636 206.965 167.723 198.324Z" fill="url(#paint1_linear)"/>
<path d="M663.327 180.067C674.328 188.796 716.815 211.815 715.633 181.625C715.328 174.105 711.447 167.037 706.453 161.841C700.739 155.876 694.511 152.957 689.891 145.875C684.245 137.327 677.933 129.36 671.036 122.075C656.921 106.897 640.694 93.0813 621.749 87.6904C608.461 83.9148 586.55 86.5127 581.468 103.559C574.063 128.373 612.779 130.304 625.074 138.369C636.741 146 643.977 159.949 653.533 170.787C656.551 174.204 659.83 177.31 663.327 180.067Z" fill="url(#paint2_linear)"/>
<path d="M469.326 163.136C492.172 174.653 509.942 192.965 531.021 207.271C566.114 231.085 612.237 233.415 651.715 248.992C691.97 264.887 723.329 291.626 739.358 332.068C760.063 384.268 765.839 447.576 754.785 503.352C742.608 564.749 707.38 607.304 653.791 637.648C600.234 667.973 539.785 684.44 478.853 691C472.973 691.639 467.095 692.159 461.188 692.583C328.502 702.018 148.77 666.83 94.2711 527.187C93.7718 525.911 93.2898 524.634 92.8054 523.339C87.1117 507.756 83.3041 491.548 81.4638 475.061C74.7943 416.62 80.8311 351.24 97.7976 294.938C109.207 257.035 136.933 223.805 166.847 199.466C208.875 165.271 262.128 153.769 315.404 146.518C354.855 141.15 399.363 137.224 437.831 149.937C448.644 153.544 459.172 157.956 469.326 163.136Z" fill="url(#paint3_linear)"/>
</g>
<path d="M395.175 376.624C396.776 380.434 401.162 382.225 404.972 380.624L420.662 374.032C428.649 370.676 437.309 369.191 445.952 369.793C448.529 369.973 451.197 369.485 453.706 368.228C460.353 364.897 463.561 357.005 461.123 349.981C458.262 341.734 449.098 337.735 441.177 341.063C439.032 341.964 437.206 343.307 435.763 344.942C429.971 351.503 422.931 356.845 414.862 360.236L399.175 366.827C395.365 368.427 393.574 372.814 395.175 376.624Z" fill="#FB4C47"/>
<path d="M320.515 460.692C317.352 459.4 313.741 460.918 312.449 464.081L307.13 477.107C304.423 483.739 300.228 489.669 294.824 494.37C293.212 495.771 291.938 497.616 291.206 499.818C289.267 505.651 292.005 512.14 297.537 514.822C304.031 517.97 311.726 514.951 314.411 508.375C315.139 506.594 315.42 504.742 315.309 502.942C314.859 495.72 315.852 488.482 318.587 481.783L323.905 468.758C325.196 465.595 323.678 461.983 320.515 460.692Z" fill="#C63F3B"/>
<path d="M368.488 343.204C371.798 344.556 375.577 342.968 376.929 339.658L382.494 326.027C385.328 319.087 389.717 312.882 395.372 307.963C397.058 306.496 398.392 304.565 399.158 302.262C401.187 296.157 398.321 289.367 392.533 286.561C385.738 283.267 377.684 286.426 374.875 293.307C374.114 295.171 373.819 297.109 373.936 298.992C374.406 306.55 373.368 314.124 370.506 321.135L364.941 334.764C363.59 338.074 365.178 341.853 368.488 343.204Z" fill="#C63F3B"/>
<path d="M366.948 445.773C363.138 447.374 361.346 451.76 362.947 455.571L369.539 471.261C372.895 479.248 374.38 487.908 373.778 496.551C373.599 499.127 374.087 501.795 375.343 504.304C378.674 510.952 386.566 514.159 393.59 511.722C401.837 508.86 405.836 499.696 402.508 491.776C401.607 489.63 400.264 487.805 398.629 486.362C392.068 480.57 386.726 473.53 383.336 465.461L376.745 449.774C375.144 445.964 370.758 444.173 366.948 445.773Z" fill="#FB4C47"/>
<path d="M398.627 486.363C392.066 480.57 386.723 473.531 383.333 465.462L376.742 449.774C375.141 445.964 370.755 444.173 366.944 445.774C363.134 447.375 361.343 451.761 362.944 455.571L369.535 471.259C372.926 479.328 378.268 486.367 384.829 492.16C386.464 493.603 387.807 495.428 388.708 497.573C390.852 502.676 389.951 508.293 386.837 512.41C389.059 512.698 391.367 512.493 393.588 511.723C401.834 508.861 405.834 499.697 402.506 491.776C401.605 489.631 400.262 487.806 398.627 486.363Z" fill="#C63F3B"/>
<path d="M283.029 390.223C295.476 384.994 301.326 370.665 296.097 358.218C290.867 345.772 276.538 339.921 264.092 345.151C251.645 350.38 245.795 364.709 251.024 377.156C256.254 389.602 270.583 395.453 283.029 390.223Z" fill="#FF8F8C"/>
<path d="M264.097 345.15C261.69 346.161 259.533 347.516 257.652 349.129C267.947 348.232 278.086 353.976 282.304 364.015C286.522 374.054 283.528 385.316 275.682 392.041C278.15 391.826 280.627 391.234 283.034 390.223C295.481 384.993 301.331 370.664 296.102 358.218C290.872 345.771 276.543 339.921 264.097 345.15Z" fill="#FB4C47"/>
<path d="M377.405 470.668C418.046 453.593 437.149 406.805 420.074 366.164C402.999 325.524 356.211 306.42 315.57 323.496C274.929 340.571 255.826 387.359 272.901 428C289.977 468.64 336.765 487.744 377.405 470.668Z" fill="#FB4C47"/>
<path d="M315.57 323.495C313.244 324.473 310.991 325.552 308.808 326.718C347.675 314.481 390.18 333.647 406.277 371.961C422.375 410.274 406.315 454.047 370.371 473.242C372.731 472.498 375.079 471.645 377.406 470.668C418.047 453.592 437.15 406.804 420.075 366.163C403 325.523 356.211 306.42 315.57 323.495Z" fill="#C63F3B"/>
<path d="M369.796 375.281C378.051 371.812 381.932 362.309 378.463 354.053C374.995 345.798 365.491 341.918 357.236 345.386C348.98 348.855 345.1 358.359 348.569 366.614C352.037 374.869 361.541 378.749 369.796 375.281Z" fill="#C63F3B"/>
<path d="M357.234 345.387C354.745 346.432 352.657 348.03 351.045 349.974C356.874 350.458 362.242 354.085 364.664 359.851C367.087 365.617 365.921 371.989 362.186 376.491C364.703 376.7 367.305 376.327 369.795 375.281C378.05 371.813 381.93 362.309 378.462 354.054C374.993 345.798 365.49 341.918 357.234 345.387Z" fill="white"/>
<path d="M336.514 446.998C342.103 444.651 344.729 438.217 342.381 432.629C340.033 427.041 333.6 424.414 328.012 426.762C322.423 429.11 319.797 435.543 322.145 441.131C324.493 446.72 330.926 449.346 336.514 446.998Z" fill="white"/>
<path d="M425.278 444.421C432.898 441.22 436.48 432.447 433.278 424.827C430.076 417.206 421.304 413.624 413.683 416.826C406.063 420.028 402.481 428.801 405.683 436.421C408.885 444.041 417.657 447.623 425.278 444.421Z" fill="#FB4C47"/>
<path d="M413.683 416.827C411.169 417.883 409.097 419.548 407.561 421.576C412.686 422.229 417.334 425.518 419.48 430.625C421.625 435.731 420.721 441.352 417.601 445.471C420.124 445.793 422.763 445.479 425.277 444.423C432.898 441.221 436.479 432.448 433.278 424.828C430.076 417.208 421.303 413.625 413.683 416.827Z" fill="#C63F3B"/>
<path d="M297.791 417.54C299.392 421.35 297.602 425.736 293.791 427.337L278.102 433.929C270.114 437.285 262.993 442.432 257.373 449.026C255.698 450.992 253.482 452.556 250.828 453.468C243.797 455.885 235.915 452.652 232.604 445.994C228.717 438.179 232.275 428.834 240.195 425.506C242.341 424.605 244.578 424.241 246.755 424.355C255.495 424.81 264.238 423.521 272.307 420.131L287.995 413.54C291.804 411.939 296.191 413.73 297.791 417.54Z" fill="#C63F3B"/>
<path d="M326.035 348.389C329.845 346.788 331.637 342.402 330.036 338.591L323.443 322.902C320.088 314.914 318.603 306.254 319.205 297.612C319.384 295.035 318.896 292.367 317.639 289.858C314.309 283.211 306.417 280.003 299.392 282.44C291.146 285.302 287.146 294.466 290.474 302.387C291.376 304.532 292.719 306.357 294.354 307.8C300.915 313.593 306.257 320.632 309.647 328.701L316.239 344.389C317.839 348.199 322.225 349.99 326.035 348.389Z" fill="#FB4C47"/>
<path d="M317.64 289.858C314.31 283.21 306.418 280.003 299.393 282.44C296.459 283.458 294.067 285.276 292.347 287.55C297.154 288.174 301.565 291.11 303.843 295.655C305.099 298.164 305.588 300.832 305.408 303.409C304.806 312.051 306.291 320.712 309.647 328.699L316.239 344.389C317.839 348.198 322.226 349.99 326.036 348.389C329.847 346.788 331.637 342.402 330.036 338.591L323.444 322.902C320.088 314.914 318.604 306.254 319.206 297.612C319.385 295.035 318.898 292.367 317.64 289.858Z" fill="#C63F3B"/>
<path d="M442.738 341.452C440.578 342.313 438.729 343.621 437.257 345.229C436.997 345.513 436.731 345.792 436.465 346.071C441.903 346.84 446.756 350.584 448.612 356.269C450.2 361.131 449.107 366.354 446.087 370.184C446.385 370.205 446.684 370.223 446.982 370.249C449.554 370.475 452.229 370.037 454.759 368.827C461.463 365.621 464.813 357.793 462.506 350.729C459.798 342.436 450.714 338.271 442.738 341.452Z" fill="#C63F3B"/>
<g opacity="0.63">
<path d="M501.882 516.024C503.098 517.741 505.475 518.147 507.192 516.931L514.261 511.924C517.86 509.375 522 507.682 526.361 507.028C527.661 506.833 528.933 506.296 530.041 505.394C532.977 503.006 533.7 498.73 531.714 495.509C529.382 491.727 524.387 490.75 520.818 493.278C519.852 493.962 519.093 494.831 518.556 495.803C516.402 499.702 513.493 503.134 509.857 505.709L502.789 510.715C501.072 511.93 500.666 514.308 501.882 516.024Z" fill="#FFC700"/>
<path d="M468.189 556.854C466.475 556.561 464.848 557.714 464.555 559.428L463.349 566.488C462.735 570.082 461.305 573.491 459.138 576.424C458.492 577.298 458.062 578.355 457.942 579.53C457.622 582.642 459.698 585.565 462.743 586.287C466.317 587.135 469.808 584.786 470.417 581.222C470.582 580.257 470.517 579.305 470.263 578.423C469.243 574.884 468.938 571.178 469.558 567.547L470.764 560.488C471.056 558.774 469.903 557.147 468.189 556.854Z" fill="#D09700"/>
<path d="M479.068 493.179C480.862 493.485 482.565 492.279 482.871 490.485L484.133 483.098C484.775 479.337 486.272 475.769 488.539 472.701C489.215 471.786 489.665 470.679 489.791 469.45C490.126 466.193 487.953 463.135 484.767 462.379C481.027 461.492 477.374 463.95 476.737 467.68C476.564 468.69 476.632 469.685 476.897 470.608C477.965 474.312 478.284 478.19 477.636 481.989L476.374 489.376C476.068 491.17 477.274 492.872 479.068 493.179Z" fill="#D09700"/>
<path d="M489.613 544.32C487.897 545.536 487.49 547.913 488.706 549.63L493.713 556.699C496.262 560.298 497.955 564.438 498.61 568.799C498.805 570.099 499.342 571.371 500.243 572.479C502.632 575.415 506.907 576.138 510.129 574.152C513.911 571.82 514.888 566.825 512.36 563.256C511.675 562.29 510.807 561.531 509.835 560.994C505.936 558.84 502.504 555.931 499.929 552.295L494.923 545.227C493.707 543.51 491.33 543.104 489.613 544.32Z" fill="#FFC700"/>
<path d="M509.835 560.992C505.935 558.838 502.504 555.929 499.929 552.293L494.923 545.225C493.707 543.508 491.329 543.102 489.613 544.318C487.896 545.534 487.49 547.911 488.706 549.628L493.712 556.697C496.287 560.332 499.718 563.241 503.618 565.396C504.589 565.932 505.458 566.691 506.143 567.658C507.771 569.957 507.943 572.847 506.85 575.237C507.986 575.135 509.11 574.779 510.129 574.15C513.911 571.819 514.887 566.824 512.36 563.255C511.675 562.288 510.806 561.529 509.835 560.992Z" fill="#D09700"/>
<path d="M441.789 525.973C447.397 522.001 448.723 514.236 444.751 508.628C440.779 503.02 433.014 501.693 427.406 505.665C421.798 509.637 420.471 517.403 424.443 523.011C428.415 528.619 436.181 529.945 441.789 525.973Z" fill="#D09700"/>
<path d="M427.406 505.665C426.322 506.433 425.4 507.344 424.642 508.353C429.659 506.772 435.331 508.507 438.535 513.03C441.739 517.554 441.493 523.48 438.336 527.688C439.539 527.309 440.705 526.741 441.789 525.973C447.397 522.001 448.724 514.235 444.752 508.627C440.78 503.019 433.014 501.693 427.406 505.665Z" fill="#FFC700"/>
<path d="M497.556 555.537C515.867 542.568 520.198 517.21 507.229 498.899C494.26 480.588 468.902 476.257 450.591 489.226C432.28 502.195 427.949 527.553 440.918 545.864C453.887 564.175 479.244 568.506 497.556 555.537Z" fill="#FFC700"/>
<path d="M450.597 489.225C449.549 489.968 448.549 490.753 447.593 491.573C465.556 481.204 488.793 486.039 501.019 503.301C513.245 520.564 510.094 544.088 494.351 557.592C495.441 556.962 496.514 556.279 497.562 555.537C515.874 542.567 520.205 517.21 507.236 498.898C494.267 480.587 468.909 476.256 450.597 489.225Z" fill="#D09700"/>
<path d="M478.679 511.759C480.033 510.8 480.353 508.925 479.394 507.57C478.435 506.216 476.56 505.896 475.206 506.855C473.851 507.814 473.531 509.689 474.49 511.044C475.449 512.398 477.325 512.718 478.679 511.759Z" fill="white"/>
<path d="M474.622 548.287C477.14 546.503 477.736 543.016 475.953 540.498C474.169 537.98 470.682 537.384 468.164 539.167C465.646 540.951 465.05 544.438 466.834 546.956C468.617 549.474 472.104 550.07 474.622 548.287Z" fill="white"/>
<path d="M456.987 524.846C460.842 522.116 461.754 516.777 459.023 512.922C456.293 509.067 450.954 508.155 447.099 510.885C443.243 513.616 442.332 518.954 445.062 522.81C447.793 526.665 453.131 527.577 456.987 524.846Z" fill="white"/>
<path d="M518.446 537.213C521.88 534.781 522.692 530.026 520.26 526.593C517.828 523.159 513.073 522.347 509.64 524.779C506.206 527.211 505.394 531.965 507.826 535.399C510.258 538.832 515.013 539.644 518.446 537.213Z" fill="#FFC700"/>
<path d="M509.641 524.779C508.509 525.581 507.663 526.637 507.123 527.815C509.742 527.574 512.415 528.695 514.045 530.996C515.674 533.297 515.845 536.19 514.749 538.581C516.038 538.463 517.315 538.016 518.448 537.213C521.882 534.781 522.693 530.027 520.262 526.593C517.83 523.16 513.075 522.347 509.641 524.779Z" fill="#D09700"/>
<path d="M452.137 537.919C453.353 539.636 452.947 542.013 451.23 543.229L444.161 548.236C440.562 550.785 437.591 554.128 435.526 558.025C434.911 559.186 433.982 560.208 432.764 560.954C429.536 562.931 425.263 562.194 422.883 559.251C420.09 555.796 420.826 550.76 424.395 548.232C425.362 547.548 426.433 547.12 427.528 546.936C431.921 546.198 436.124 544.593 439.759 542.018L446.828 537.012C448.544 535.796 450.921 536.202 452.137 537.919Z" fill="#D09700"/>
<path d="M458.539 500.443C460.255 499.227 460.662 496.85 459.446 495.133L454.439 488.064C451.89 484.465 450.197 480.325 449.542 475.964C449.347 474.664 448.81 473.392 447.909 472.284C445.521 469.348 441.245 468.625 438.023 470.611C434.241 472.943 433.265 477.938 435.792 481.507C436.477 482.473 437.346 483.232 438.317 483.769C442.217 485.923 445.648 488.832 448.223 492.468L453.229 499.536C454.445 501.253 456.822 501.659 458.539 500.443Z" fill="#FFC700"/>
<path d="M447.907 472.284C445.518 469.348 441.243 468.625 438.021 470.611C436.675 471.441 435.687 472.608 435.083 473.928C437.541 473.707 440.057 474.68 441.69 476.687C442.591 477.795 443.128 479.067 443.323 480.367C443.978 484.729 445.671 488.868 448.22 492.467L453.227 499.536C454.442 501.253 456.82 501.659 458.537 500.443C460.253 499.227 460.659 496.85 459.444 495.133L454.437 488.064C451.888 484.465 450.195 480.326 449.54 475.964C449.345 474.664 448.808 473.392 447.907 472.284Z" fill="#D09700"/>
</g>
<path d="M553.172 432.391C550.815 431.841 548.458 433.305 547.907 435.662L545.64 445.369C544.486 450.31 542.213 454.927 538.957 458.819C537.986 459.979 537.3 461.412 537.033 463.034C536.328 467.332 538.968 471.566 543.137 472.824C548.031 474.302 553.078 471.331 554.223 466.431C554.533 465.104 554.523 463.776 554.244 462.53C553.124 457.528 553.01 452.353 554.176 447.361L556.443 437.656C556.994 435.299 555.529 432.942 553.172 432.391Z" fill="#1DB776"/>
<path d="M538.973 368.088C540.672 367.031 541.194 364.797 540.138 363.097L535.789 356.097C533.575 352.534 532.205 348.506 531.833 344.327C531.722 343.081 531.286 341.842 530.493 340.738C528.393 337.814 524.375 336.882 521.201 338.583C517.476 340.58 516.262 345.268 518.458 348.802C519.053 349.759 519.834 350.529 520.726 351.095C524.305 353.364 527.397 356.323 529.633 359.923L533.982 366.922C535.039 368.622 537.273 369.144 538.973 368.088Z" fill="#128E5A"/>
<path d="M578.196 431.223C576.417 432.328 575.871 434.666 576.976 436.445L581.527 443.77C583.844 447.499 585.277 451.714 585.666 456.087C585.782 457.391 586.239 458.687 587.069 459.842C589.266 462.903 593.471 463.878 596.792 462.098C600.69 460.007 601.96 455.102 599.663 451.405C599.04 450.403 598.222 449.597 597.289 449.005C593.544 446.63 590.309 443.534 587.968 439.767L583.418 432.443C582.312 430.664 579.974 430.118 578.196 431.223Z" fill="#128E5A"/>
<path d="M530.083 395.233C530.633 392.875 529.169 390.518 526.812 389.968L517.105 387.7C512.164 386.546 507.547 384.273 503.655 381.017C502.495 380.046 501.062 379.36 499.44 379.094C495.143 378.388 490.909 381.028 489.65 385.197C488.172 390.091 491.143 395.138 496.043 396.283C497.371 396.593 498.698 396.583 499.944 396.304C504.946 395.184 510.121 395.07 515.113 396.236L524.818 398.503C527.175 399.054 529.532 397.59 530.083 395.233Z" fill="#1DB776"/>
<path d="M499.946 396.304C504.948 395.184 510.123 395.071 515.115 396.237L524.82 398.504C527.177 399.054 529.534 397.59 530.085 395.233C530.635 392.875 529.171 390.518 526.814 389.968L517.109 387.701C512.117 386.535 506.942 386.648 501.94 387.768C500.693 388.048 499.366 388.057 498.039 387.747C494.882 387.01 492.528 384.652 491.646 381.759C490.746 382.714 490.05 383.879 489.652 385.197C488.174 390.092 491.145 395.138 496.045 396.283C497.372 396.593 498.699 396.584 499.946 396.304Z" fill="#128E5A"/>
<path d="M585.274 374.534C583.475 382.234 588.259 389.934 595.959 391.733C603.659 393.532 611.359 388.748 613.158 381.047C614.957 373.347 610.173 365.647 602.473 363.849C594.772 362.05 587.072 366.834 585.274 374.534Z" fill="#128E5A"/>
<path d="M613.16 381.049C613.508 379.56 613.607 378.072 613.489 376.625C610.375 381.816 604.166 384.649 597.955 383.198C591.744 381.748 587.433 376.457 586.941 370.424C586.194 371.668 585.624 373.046 585.276 374.536C583.477 382.236 588.261 389.936 595.961 391.735C603.661 393.533 611.362 388.749 613.16 381.049Z" fill="#1DB776"/>
<path d="M514.681 391.636C508.808 416.779 524.429 441.922 549.572 447.795C574.714 453.668 599.857 438.047 605.73 412.904C611.603 387.762 595.982 362.619 570.839 356.746C545.697 350.873 520.554 366.494 514.681 391.636Z" fill="#1DB776"/>
<path d="M605.739 412.903C606.075 411.464 606.337 410.024 606.535 408.588C598.977 431.226 575.277 444.795 551.574 439.258C527.871 433.721 512.634 411.058 515.887 387.415C515.428 388.789 515.026 390.196 514.69 391.636C508.817 416.778 524.438 441.921 549.58 447.794C574.723 453.667 599.866 438.046 605.739 412.903Z" fill="#128E5A"/>
<path d="M562.529 420.818C561.336 425.925 564.509 431.032 569.616 432.225C574.723 433.418 579.83 430.245 581.023 425.138C582.216 420.031 579.043 414.923 573.936 413.73C568.829 412.537 563.722 415.71 562.529 420.818Z" fill="#128E5A"/>
<path d="M581.033 425.136C581.393 423.596 581.353 422.057 580.985 420.624C578.752 423.222 575.187 424.521 571.62 423.688C568.053 422.854 565.431 420.111 564.58 416.792C563.616 417.914 562.898 419.276 562.538 420.816C561.346 425.923 564.519 431.031 569.626 432.224C574.733 433.417 579.84 430.244 581.033 425.136Z" fill="white"/>
<path d="M539.964 380.38C539.157 383.837 541.305 387.294 544.762 388.102C548.219 388.91 551.677 386.762 552.484 383.304C553.292 379.847 551.144 376.39 547.686 375.582C544.229 374.774 540.772 376.922 539.964 380.38Z" fill="white"/>
<path d="M510.671 423.36C509.57 428.075 512.499 432.79 517.214 433.891C521.929 434.992 526.644 432.063 527.745 427.348C528.846 422.633 525.917 417.918 521.202 416.817C516.487 415.716 511.772 418.645 510.671 423.36Z" fill="#1DB776"/>
<path d="M527.749 427.347C528.112 425.791 528.034 424.236 527.601 422.811C525.529 425.017 522.371 426.091 519.212 425.353C516.052 424.615 513.697 422.253 512.817 419.357C511.796 420.443 511.038 421.803 510.674 423.358C509.573 428.073 512.503 432.788 517.217 433.89C521.932 434.991 526.648 432.062 527.749 427.347Z" fill="#128E5A"/>
<path d="M567.244 372.146C564.887 371.596 563.422 369.239 563.973 366.882L566.24 357.175C567.394 352.234 567.402 347.087 566.207 342.156C565.85 340.686 565.87 339.097 566.35 337.525C567.621 333.36 571.863 330.733 576.158 331.452C581.201 332.295 584.41 337.194 583.265 342.095C582.955 343.422 582.358 344.608 581.556 345.601C578.336 349.59 575.941 354.179 574.775 359.17L572.508 368.876C571.958 371.232 569.601 372.697 567.244 372.146Z" fill="#128E5A"/>
<path d="M590.332 409.307C589.781 411.664 591.246 414.021 593.603 414.572L603.31 416.839C608.251 417.994 612.868 420.267 616.76 423.523C617.92 424.494 619.353 425.18 620.975 425.446C625.272 426.152 629.506 423.512 630.765 419.343C632.242 414.448 629.272 409.401 624.372 408.257C623.044 407.947 621.717 407.956 620.471 408.235C615.468 409.356 610.294 409.469 605.302 408.303L595.597 406.036C593.24 405.486 590.883 406.95 590.332 409.307Z" fill="#1DB776"/>
<path d="M620.973 425.444C625.271 426.15 629.505 423.51 630.764 419.341C631.289 417.6 631.25 415.84 630.763 414.243C628.814 416.308 625.906 417.391 622.967 416.908C621.346 416.642 619.912 415.956 618.752 414.985C614.861 411.729 610.243 409.456 605.302 408.301L595.596 406.034C593.239 405.484 590.881 406.948 590.331 409.305C589.78 411.663 591.244 414.02 593.602 414.57L603.308 416.837C608.25 417.992 612.867 420.265 616.758 423.521C617.919 424.492 619.352 425.178 620.973 425.444Z" fill="#128E5A"/>
<path d="M554.221 466.437C554.53 465.11 554.521 463.784 554.242 462.538C554.193 462.318 554.148 462.096 554.102 461.875C551.911 464.23 548.486 465.308 545.132 464.295C542.264 463.429 540.121 461.154 539.292 458.42C539.182 458.556 539.074 458.694 538.961 458.828C537.991 459.988 537.305 461.42 537.039 463.041C536.334 467.337 538.972 471.569 543.14 472.827C548.032 474.304 553.076 471.335 554.221 466.437Z" fill="#128E5A"/>
<defs>
<linearGradient id="paint0_linear" x1="89.0595" y1="589.687" x2="138.076" y2="725.827" gradientUnits="userSpaceOnUse">
<stop stop-color="#FFD8D8"/>
<stop offset="1" stop-color="#FFF8F8"/>
</linearGradient>
<linearGradient id="paint1_linear" x1="735.47" y1="244.693" x2="298.853" y2="7.3448" gradientUnits="userSpaceOnUse">
<stop stop-color="#FFF8F8"/>
<stop offset="1" stop-color="#FFCFCF"/>
</linearGradient>
<linearGradient id="paint2_linear" x1="716.658" y1="181.027" x2="558.938" y2="125.505" gradientUnits="userSpaceOnUse">
<stop stop-color="#FFD7D7"/>
<stop offset="1" stop-color="#FFF9F9"/>
</linearGradient>
<linearGradient id="paint3_linear" x1="710.235" y1="615.48" x2="70.0668" y2="298.53" gradientUnits="userSpaceOnUse">
<stop stop-color="#FFCFCF"/>
<stop offset="1" stop-color="#FFF8F8"/>
</linearGradient>
</defs>
</svg>
