<svg width="23" height="16" viewBox="0 0 23 16" fill="none" xmlns="http://www.w3.org/2000/svg">
<path d="M9.42399 10.9911L15.366 7.92187L9.42399 4.81585V10.9911ZM11.6952 0.408482C13.0702 0.408482 14.3961 0.428943 15.6729 0.469865C16.9578 0.502603 17.8991 0.539434 18.4965 0.580357L19.3927 0.629464C19.4009 0.629464 19.4705 0.637648 19.6014 0.654017C19.7324 0.662202 19.8265 0.674479 19.8838 0.690847C19.9411 0.699032 20.0352 0.715401 20.1662 0.739954C20.3053 0.764508 20.424 0.797246 20.5222 0.838169C20.6204 0.879092 20.735 0.932291 20.866 0.997767C20.9969 1.06324 21.1238 1.14509 21.2465 1.2433C21.3693 1.33333 21.488 1.43973 21.6026 1.5625C21.6517 1.61161 21.713 1.68936 21.7867 1.79576C21.8686 1.89397 21.9872 2.13132 22.1427 2.50781C22.3064 2.8843 22.4169 3.29762 22.4742 3.74777C22.5397 4.27158 22.5888 4.83222 22.6215 5.42969C22.6625 6.01897 22.687 6.4814 22.6952 6.81696V7.30804V8.97768C22.7034 10.1644 22.6297 11.3512 22.4742 12.5379C22.4169 12.9881 22.3146 13.3973 22.1673 13.7656C22.02 14.1257 21.889 14.3754 21.7744 14.5145L21.6026 14.7232C21.488 14.846 21.3693 14.9565 21.2465 15.0547C21.1238 15.1447 20.9969 15.2225 20.866 15.2879C20.735 15.3452 20.6204 15.3943 20.5222 15.4353C20.424 15.4762 20.3053 15.5089 20.1662 15.5335C20.0352 15.558 19.937 15.5785 19.8715 15.5949C19.8142 15.6031 19.7201 15.6153 19.5892 15.6317C19.4664 15.6399 19.4009 15.644 19.3927 15.644C17.3384 15.7995 14.7726 15.8772 11.6952 15.8772C10.001 15.8609 8.52778 15.8363 7.27555 15.8036C6.0315 15.7626 5.21305 15.7299 4.82019 15.7054L4.21863 15.6562L3.77666 15.6071C3.48202 15.5662 3.25695 15.5253 3.10144 15.4844C2.95412 15.4435 2.74541 15.3575 2.47532 15.2266C2.21342 15.0956 1.98425 14.9278 1.78782 14.7232C1.73872 14.6741 1.67324 14.6004 1.5914 14.5022C1.51774 14.3958 1.39906 14.1544 1.23537 13.7779C1.07986 13.4014 0.973464 12.9881 0.916173 12.5379C0.850696 12.0141 0.797497 11.4576 0.756574 10.8683C0.723836 10.2708 0.703375 9.80432 0.69519 9.46875V8.97768V7.30804C0.687006 6.12128 0.760667 4.93452 0.916173 3.74777C0.973464 3.29762 1.07577 2.89248 1.22309 2.53237C1.37041 2.16406 1.50137 1.91034 1.61595 1.7712L1.78782 1.5625C1.90241 1.43973 2.02108 1.33333 2.14385 1.2433C2.26662 1.14509 2.39348 1.06324 2.52443 0.997767C2.65538 0.932291 2.76997 0.879092 2.86818 0.838169C2.9664 0.797246 3.08098 0.764508 3.21193 0.739954C3.35107 0.715401 3.44928 0.699032 3.50657 0.690847C3.56387 0.674479 3.65799 0.662202 3.78894 0.654017C3.91989 0.637648 3.98946 0.629464 3.99765 0.629464C6.05196 0.482143 8.61781 0.408482 11.6952 0.408482Z" fill="#F44A45"/>
</svg>
